PathFileType	4	(X/Y/Z)	C:/Users/opensim2020/Desktop/walking_exp_matlab/subject01_walking07_straight_02.trc																																																																																																																															
DataRate	CameraRate	NumFrames	NumMarkers	Units	OrigDataRate	OrigDataStartFrame	OrigNumFrames																																																																																																																											
100	100	7	43	mm	100	1429	178																																																																																																																											
Frame#	Time	LFHD			RFHD			LBHD			RBHD			C7			T10			CLAV			STRN			RBAK			LSHO			LUPA			LELB			LFRM			LWRA			LWRB			LFIN			RSHO			RUPA			RELB			RFRM			RWRA			RWRB			RFIN			LASI			RASI			LPSI			RPSI			LTHI			LKNE			LTIB			LANK			LHEE			LTOE			RTHI			RKNE			RTIB			RANK			RHEE			RTOE			*39			*40			*41			*42		
		X1	Y1	Z1	X2	Y2	Z2	X3	Y3	Z3	X4	Y4	Z4	X5	Y5	Z5	X6	Y6	Z6	X7	Y7	Z7	X8	Y8	Z8	X9	Y9	Z9	X10	Y10	Z10	X11	Y11	Z11	X12	Y12	Z12	X13	Y13	Z13	X14	Y14	Z14	X15	Y15	Z15	X16	Y16	Z16	X17	Y17	Z17	X18	Y18	Z18	X19	Y19	Z19	X20	Y20	Z20	X21	Y21	Z21	X22	Y22	Z22	X23	Y23	Z23	X24	Y24	Z24	X25	Y25	Z25	X26	Y26	Z26	X27	Y27	Z27	X28	Y28	Z28	X29	Y29	Z29	X30	Y30	Z30	X31	Y31	Z31	X32	Y32	Z32	X33	Y33	Z33	X34	Y34	Z34	X35	Y35	Z35	X36	Y36	Z36	X37	Y37	Z37	X38	Y38	Z38	X39	Y39	Z39	X40	Y40	Z40	X41	Y41	Z41	X42	Y42	Z42	X43	Y43	Z43
																																																																																																																																		
1	0	-976.14551	1683.10315	1027.12903	-941.36542	1688.89307	1137.74121	-1086.36914	1632.92224	1057.39038	-1053.79004	1638.6178	1174.53882	-1112.62915	1440.93408	1083.57361	-1143.89392	1147.75647	1078.56812	-966.99634	1376.82654	1083.91272	-922.38538	1222.53418	1074.96411	-1164.25134	1244.66553	1153.68225	-1023.68976	1410.67688	922.14233	-1051.20569	1228.18176	830.84686	-1068.60486	1078.65479	826.13739	-1031.62744	969.94623	801.56934	-960.63	850.40015	826.15167	-1011.37073	849.28204	793.36615	-965.5921	776.7934	790.8028	-1031.99133	1399.53308	1234.87549	-1081.95984	1194.90625	1329.91443	-1071.46912	1070.79736	1334.76477	-1031.02637	958.32251	1368.69897	-934.2243	853.73083	1359.27808	-981.17981	848.59485	1393.36804	-934.95343	775.23029	1393.98254	-965.28931	943.83112	973.19745	-971.69623	946.57813	1191.05383	-1151.96521	951.53644	1017.62292	-1156.14148	958.29553	1162.67407	-922.40234	620.10956	911.75714	-906.6687	488.69058	923.19653	-1038.63965	361.60318	918.96167	-1178.50208	193.70819	966.36304	-1227.12	190.88258	1024.46948	-1093.59656	77.07122	949.16577	-1021.4201	610.98315	1240.65576	-1008.38153	453.06808	1214.49158	-1066.36292	284.72998	1216.73853	-1089.82178	80.13657	1162.86804	-1136.66553	43.08507	1109.82361	-949.5058	40.5323	1168.77869	-959.05481	1722.24902	1118.13342	-1973.05273	1023.5639	3102.02417	-2012.57581	1022.12183	3140.7063	NaN	NaN	NaN
2	0.01	-966.95093	1683.10596	1028.04602	-931.86566	1688.93689	1138.32751	-1077.21313	1633.255	1058.55933	-1044.35681	1639.02429	1175.64917	-1103.8147	1441.21326	1085.1449	-1135.43689	1148.06067	1080.46545	-958.26184	1377.05408	1085.18237	-913.85693	1222.64331	1076.07581	-1155.30872	1245.0575	1155.82129	-1015.42468	1410.75635	923.37689	-1044.84998	1228.39734	832.31604	-1064.03076	1079.23547	828.08069	-1030.04688	969.90509	803.03845	-961.71716	848.53876	827.01282	-1012.64203	848.82306	794.52734	-968.91455	775.09723	791.6095	-1022.64093	1400.0282	1236.24805	-1071.32983	1195.52246	1332.02576	-1059.80383	1071.34839	1337.12549	-1017.49457	959.50275	1371.12866	-918.90137	856.68683	1361.77673	-965.65961	850.75415	1395.98889	-918.09454	778.4613	1396.7334	-957.06079	944.50189	974.82062	-963.61194	946.47986	1192.69421	-1143.6958	951.75598	1018.94629	-1148.073	958.34656	1163.96252	-910.0639	622.31293	912.74371	-893.15576	490.80423	924.73749	-1021.05145	359.07214	920.53033	-1155.04102	186.43874	968.74182	-1203.89966	181.62123	1026.96252	-1064.63818	73.86125	952.14673	-1016.89496	611.01062	1241.32874	-1006.05676	452.78323	1215.06152	-1064.87939	284.84317	1217.12378	-1089.67676	80.36246	1162.91809	-1136.73499	43.48209	1109.74402	-949.31433	40.37063	1168.75391	-949.38922	1722.32861	1118.89441	-1973.22046	1023.50879	3101.88379	-2012.58459	1022.09644	3140.61719	NaN	NaN	NaN
3	0.02	-957.61182	1683.03479	1028.82385	-922.36224	1688.96765	1139.04578	-1068.07605	1633.54797	1059.66602	-1034.89209	1639.34814	1176.59021	-1094.92249	1441.44324	1086.65576	-1126.9187	1148.2959	1082.40002	-949.53717	1377.16394	1086.07324	-905.30768	1222.63245	1077.0553	-1146.35193	1245.39075	1157.85522	-1007.2063	1410.73169	924.52606	-1038.3916	1228.53418	833.72253	-1059.5282	1079.81567	829.88464	-1028.09583	969.96509	804.48248	-962.61774	846.77112	827.89655	-1013.73358	848.4502	795.66534	-972.09424	773.52594	792.40393	-1013.2818	1400.42737	1237.31348	-1060.75696	1196.08594	1334.0293	-1048.29077	1071.84644	1339.42749	-1004.08447	960.5495	1373.5946	-903.76929	859.65051	1364.07886	-950.22729	852.86243	1398.37659	-901.29218	781.5639	1399.33228	-948.72961	945.00372	976.18182	-955.43182	946.15906	1194.18286	-1135.43091	951.85712	1020.18231	-1139.75171	958.25378	1165.104	-897.83459	624.37073	913.58221	-879.96234	492.88068	926.18732	-1003.32916	355.84583	921.86139	-1130.85498	178.53149	971.18884	-1178.90564	171.18112	1029.44141	-1035.46399	70.86786	954.19324	-1012.39514	610.86597	1241.96094	-1003.43561	452.41394	1215.63013	-1063.0365	284.89667	1217.38013	-1089.73486	80.83378	1163.20789	-1136.60144	43.98832	1109.68567	-949.31317	40.33995	1168.74976	-940.02472	1722.23193	1119.38843	-1973.15222	1023.50549	3101.90771	-2012.50586	1022.08044	3140.71289	NaN	NaN	NaN
4	0.03	-948.45337	1682.9364	1029.46191	-912.91351	1688.9231	1139.64294	-1058.90149	1633.70068	1060.64551	-1025.47412	1639.59473	1177.52148	-1086.03967	1441.59497	1088.099	-1118.36328	1148.43042	1084.28674	-940.74762	1377.09705	1086.98499	-896.69281	1222.49609	1078.01428	-1137.4082	1245.67688	1159.8418	-998.9837	1410.65381	925.65985	-1031.86401	1228.62061	835.07117	-1054.97644	1080.37341	831.50342	-1025.88525	969.9848	805.87738	-963.37439	845.13843	828.74963	-1014.18732	848.26263	796.37952	-974.79395	772.1759	793.26917	-1003.91852	1400.75391	1238.44446	-1050.24194	1196.578	1335.88879	-1036.82361	1072.26672	1341.64929	-990.85724	961.69354	1376.08093	-888.88586	862.41919	1366.2063	-935.1897	854.94879	1400.75342	-884.79218	784.69727	1401.80664	-940.43103	945.49457	977.68579	-947.31384	945.83679	1195.42798	-1127.14038	951.85498	1021.34668	-1132.03955	958.26477	1166.42261	-885.677	626.1521	914.41895	-867.1236	494.4996	927.6037	-985.31915	351.92664	923.04492	-1106.10364	170.12178	973.71283	-1153.71375	160.43164	1032.35767	-1005.70502	67.88271	955.7016	-1008.39758	611.03113	1242.86218	-1000.61926	452.10287	1216.06787	-1060.96216	284.90906	1217.80237	-1089.46826	81.0912	1163.28955	-1136.5072	44.61469	1109.70215	-949.12512	40.41884	1168.75977	-930.34198	1722.23987	1120.16943	-1973.09119	1023.42035	3101.95508	-2012.52466	1022.04211	3140.67773	NaN	NaN	NaN
5	0.04	-939.32263	1682.70935	1030.07703	-903.47699	1688.74463	1140.07703	-1049.79968	1633.78076	1061.61279	-1016.06873	1639.76416	1178.37305	-1077.073	1441.61487	1089.41113	-1109.78894	1148.49182	1086.11133	-932.16949	1376.98328	1087.5564	-888.14728	1222.36011	1078.93176	-1128.48755	1245.9104	1161.76074	-990.71588	1410.42932	926.72809	-1025.36743	1228.61975	836.39227	-1050.10461	1080.7926	833.17303	-1023.52527	970.03217	807.27441	-963.62994	843.78491	829.5108	-1015.0343	848.05481	797.41486	-977.43945	770.76587	794.42059	-994.54962	1401.01074	1239.50452	-1039.84412	1197.05847	1337.7959	-1025.43884	1072.56299	1343.81396	-977.70331	962.60687	1378.15808	-874.03955	865.43127	1368.47205	-920.20508	856.97021	1403.15637	-868.53503	787.73254	1404.15125	-931.98499	945.72461	978.85291	-939.11279	945.26874	1196.73364	-1118.81787	951.73749	1022.37469	-1123.61621	958.0434	1167.26721	-873.99274	627.81116	915.31531	-854.52496	495.82254	928.97107	-967.36273	347.68692	924.3692	-1080.896	161.43204	976.21741	-1127.50269	149.00847	1035.3136	-975.30164	65.13248	956.64996	-1003.57501	610.73981	1243.21765	-997.651	451.75729	1216.54492	-1059.03748	285.0874	1218.18225	-1089.16907	81.42541	1163.42102	-1135.99512	45.21476	1109.755	-948.92957	40.44843	1168.72778	-920.99786	1722.10925	1120.60229	-1973.08655	1023.41412	3101.92993	-2012.5498	1022.05481	3140.83423	NaN	NaN	NaN
6	0.05	-930.15826	1682.33496	1030.53052	-894.07202	1688.56506	1140.57813	-1040.66406	1633.63867	1062.44434	-1006.66266	1639.77881	1179.14771	-1068.11865	1441.52588	1090.66028	-1101.14429	1148.42603	1087.79663	-923.50885	1376.61487	1088.22229	-879.4823	1221.9906	1079.81018	-1119.53564	1246.0177	1163.59766	-982.3905	1410.10706	927.60205	-1018.76526	1228.44543	837.65613	-1045.29382	1081.15637	834.78333	-1021.2829	970.16577	808.73315	-964.2276	842.43066	830.33154	-1015.30444	847.93329	798.4964	-979.73425	769.68567	795.2951	-985.09216	1401.08301	1240.51685	-1029.48254	1197.28796	1339.2323	-1014.2077	1072.89417	1345.97119	-964.70856	963.5849	1380.37573	-859.67468	868.35944	1370.75232	-905.47076	858.91718	1405.34216	-852.50635	790.51929	1406.20374	-923.52069	945.86279	980.00293	-931.0365	944.65771	1197.85193	-1110.47656	951.59949	1023.24957	-1115.4043	957.90448	1168.05676	-862.78705	629.1579	916.25739	-842.32306	496.72864	930.42596	-949.24524	342.99411	926.08618	-1054.90723	152.49734	978.63885	-1100.41833	137.22765	1038.10828	-944.44385	62.55475	956.98938	-998.70197	610.65668	1243.75354	-994.70026	451.45868	1217.02515	-1057.22693	285.3334	1218.5304	-1088.93042	81.81336	1163.54443	-1135.87158	45.81522	1109.70337	-948.75317	40.42323	1168.81226	-911.43268	1722.10693	1121.11194	-1973.07385	1023.55646	3102.01563	-2012.49963	1021.98724	3140.73975	NaN	NaN	NaN
7	0.06	-921.06976	1681.96631	1030.9491	-884.65778	1688.18787	1140.76965	-1031.51025	1633.40149	1063.17297	-997.2525	1639.65369	1179.72449	-1059.10925	1441.32507	1091.87793	-1092.47498	1148.24792	1089.34583	-914.8559	1376.23157	1088.54944	-870.78552	1221.54663	1080.61536	-1110.56909	1246.06372	1165.34192	-973.98981	1409.66003	928.45337	-1012.09021	1228.26624	838.81323	-1040.66626	1081.63953	836.10284	-1018.5993	970.20605	810.00427	-964.27002	841.14355	831.22729	-1015.22876	847.84503	799.34277	-981.55725	768.56317	796.33423	-975.6532	1401.1001	1241.30981	-1019.17145	1197.51563	1340.8302	-1003.03107	1073.1106	1348.01685	-951.77704	964.55475	1382.62439	-845.48669	871.11511	1372.79529	-891.06067	860.85321	1407.54175	-836.68909	793.27753	1407.85608	-915.06293	945.82428	981.07959	-922.82391	943.93976	1199.00659	-1102.04639	951.42462	1023.98297	-1107.21265	957.68604	1168.70813	-851.92023	630.17242	917.23492	-830.5741	497.35751	931.85681	-931.8681	338.30487	927.40778	-1027.83752	143.37819	980.86633	-1072.42798	125.40214	1040.7074	-913.34509	60.10206	956.81122	-993.45789	610.28864	1244.42078	-991.70831	451.09399	1217.48511	-1055.55359	285.57639	1218.76147	-1088.60107	82.21278	1163.58838	-1135.70398	46.51088	1109.67651	-948.44147	40.37835	1168.83936	-902.17175	1721.70325	1121.32361	-1973.07324	1023.96143	3101.90991	-2012.66199	1022.15271	3140.75317	NaN	NaN	NaN
